<svg width="272" height="272" viewBox="0 0 272 272" fill="none" xmlns="http://www.w3.org/2000/svg">
<path d="M234.467 0H36.6959C16.4293 0 0 16.4293 0 36.6959V234.467C0 254.734 16.4293 271.163 36.6959 271.163H234.467C254.734 271.163 271.163 254.734 271.163 234.467V36.6959C271.163 16.4293 254.734 0 234.467 0Z" fill="#B5E0EF"/>
<path d="M187.625 102.509C189.583 102.357 191.083 100.729 191.083 98.7712V89.7943C191.083 87.8362 189.583 86.2087 187.625 86.0307L175.749 85.1152C174.986 85.0643 174.35 84.5811 174.045 83.8945L170.129 74.4599C169.849 73.7733 169.951 72.9595 170.459 72.4L178.216 63.3468C179.487 61.8465 179.411 59.634 178.012 58.2354L171.68 51.9032C170.281 50.5045 168.069 50.4282 166.569 51.6998L157.515 59.456C156.931 59.9392 156.142 60.0663 155.456 59.7866L146.021 55.8703C145.334 55.5906 144.851 54.9294 144.775 54.1665L143.859 42.2906C143.707 40.3324 142.079 38.832 140.121 38.832H131.144C129.186 38.832 127.559 40.3324 127.406 42.316L126.49 54.1919C126.44 54.9548 125.956 55.5906 125.27 55.8958L115.835 59.812C115.149 60.0918 114.335 59.9646 113.75 59.4814L104.697 51.7252C103.196 50.4537 100.984 50.53 99.5852 51.9286L93.2531 58.2608C91.8544 59.6594 91.7781 61.8719 93.0496 63.3723L100.806 72.4255C101.289 73.0104 101.416 73.7987 101.136 74.4853L97.2202 83.92C96.9404 84.632 96.2793 85.0897 95.5164 85.1406L83.6404 86.0561C81.6823 86.2087 80.1819 87.8362 80.1819 89.8198V98.7967C80.1819 100.755 81.6823 102.408 83.6404 102.56C118.327 102.56 153.014 102.56 187.676 102.56L187.625 102.509ZM118.734 102.509C118.607 102.23 118.404 101.848 118.226 101.365C116.98 98.3135 116.852 95.6179 116.852 94.2701C116.852 89.2603 118.811 84.5557 122.345 81.0209C125.88 77.4861 130.61 75.5279 135.62 75.5279C140.63 75.5279 145.334 77.4861 148.895 81.0209C152.429 84.5557 154.387 89.2603 154.387 94.2701C154.387 95.6687 154.235 98.3644 153.014 101.365C152.811 101.848 152.633 102.23 152.506 102.509C141.265 102.509 130.025 102.509 118.785 102.509H118.734Z" fill="#0C79DD" stroke="black" stroke-width="2" stroke-miterlimit="10"/>
<path fill-rule="evenodd" clip-rule="evenodd" d="M56.9893 177.732V226.66C56.9893 229.814 59.6341 232.357 62.8892 232.357H75.5789C78.4525 232.357 80.9192 230.348 81.4024 227.601L84.5049 209.596C99.6105 211.148 116.344 212.165 134.501 212.216C153.497 212.267 170.968 211.224 186.658 209.596C187.701 215.598 188.718 221.6 189.761 227.601C190.244 230.348 192.685 232.357 195.584 232.357H208.274C211.529 232.357 214.174 229.814 214.174 226.66V177.732C214.174 168.806 211.428 160.084 206.316 152.658L200.187 143.783C199.653 142.995 199.17 142.155 198.789 141.291H206.596C208.834 141.291 210.868 140.07 211.86 138.137L213.818 134.348C215.267 131.525 214.098 128.118 211.173 126.719C210.359 126.338 209.469 126.109 208.554 126.109H195.305L192.863 114.385C191.338 107.087 185.565 101.314 178.038 99.6359C166.543 97.0674 152.378 95.7704 135.569 95.7704C118.76 95.7704 104.569 97.0674 93.1004 99.6359C85.5984 101.314 79.8003 107.087 78.2745 114.385L75.8332 126.109H62.584C59.3289 126.109 56.6842 128.677 56.7096 131.805C56.7096 132.695 56.913 133.56 57.3199 134.348L59.2781 138.137C60.2698 140.07 62.3043 141.291 64.5421 141.291H72.3492C71.9678 142.155 71.4846 142.995 70.9506 143.783L64.8219 152.658C59.7104 160.084 56.9639 168.806 56.9639 177.732H56.9893ZM182.412 141.316C182.946 143.935 183.861 146.478 185.082 148.894H86.0562C87.3022 146.504 88.1923 143.961 88.7263 141.316L93.6852 117.361C93.9904 115.886 95.1348 114.741 96.6606 114.411C106.858 112.122 119.853 110.952 135.569 110.952C151.285 110.952 164.28 112.148 174.477 114.436C175.978 114.767 177.147 115.937 177.453 117.386L182.412 141.342V141.316ZM103.476 179.716C85.5475 183.505 71.6626 179.563 69.0687 168.908C68.6618 167.204 68.4584 165.068 68.7636 162.372C76.7487 162.194 88.3703 164.127 99.2545 175.011C100.755 176.512 102.154 178.114 103.45 179.741L103.476 179.716ZM171.858 174.986C182.742 164.102 194.338 162.169 202.349 162.347C202.654 165.043 202.476 167.179 202.044 168.883C199.45 179.538 185.59 183.48 167.637 179.69C168.934 178.063 170.332 176.486 171.833 174.96L171.858 174.986Z" fill="#010101"/>
</svg>
