<svg width="292" height="335" viewBox="0 0 292 335" fill="none" xmlns="http://www.w3.org/2000/svg">
<g filter="url(#filter0_d_42_19)">
<path d="M241.467 7H43.6959C23.4293 7 7 23.4293 7 43.6959V241.467C7 261.734 23.4293 278.163 43.6959 278.163H241.467C261.734 278.163 278.163 261.734 278.163 241.467V43.6959C278.163 23.4293 261.734 7 241.467 7Z" fill="#B5E0EF"/>
</g>
<g filter="url(#filter1_d_42_19)">
<path d="M194.625 109.509C196.583 109.357 198.083 107.729 198.083 105.771V96.7943C198.083 94.8362 196.583 93.2087 194.625 93.0307L182.749 92.1152C181.986 92.0643 181.35 91.5811 181.045 90.8945L177.129 81.4599C176.849 80.7733 176.951 79.9595 177.459 79.4L185.216 70.3468C186.487 68.8465 186.411 66.634 185.012 65.2354L178.68 58.9032C177.281 57.5045 175.069 57.4282 173.569 58.6998L164.515 66.456C163.93 66.9392 163.142 67.0663 162.456 66.7866L153.021 62.8703C152.334 62.5906 151.851 61.9294 151.775 61.1665L150.859 49.2906C150.707 47.3324 149.079 45.832 147.121 45.832H138.144C136.186 45.832 134.559 47.3324 134.406 49.316L133.49 61.1919C133.44 61.9548 132.956 62.5906 132.27 62.8958L122.835 66.812C122.149 67.0918 121.335 66.9646 120.75 66.4814L111.697 58.7252C110.196 57.4537 107.984 57.53 106.585 58.9286L100.253 65.2608C98.8544 66.6594 98.7781 68.8719 100.05 70.3723L107.806 79.4255C108.289 80.0104 108.416 80.7987 108.136 81.4853L104.22 90.92C103.94 91.632 103.279 92.0897 102.516 92.1406L90.6404 93.0561C88.6823 93.2087 87.1819 94.8362 87.1819 96.8198V105.797C87.1819 107.755 88.6823 109.408 90.6404 109.56C125.327 109.56 160.014 109.56 194.676 109.56L194.625 109.509ZM125.734 109.509C125.607 109.23 125.404 108.848 125.226 108.365C123.98 105.314 123.852 102.618 123.852 101.27C123.852 96.2603 125.81 91.5557 129.345 88.0209C132.88 84.4861 137.61 82.5279 142.62 82.5279C147.63 82.5279 152.334 84.4861 155.895 88.0209C159.429 91.5557 161.387 96.2603 161.387 101.27C161.387 102.669 161.235 105.364 160.014 108.365C159.811 108.848 159.633 109.23 159.506 109.509C148.265 109.509 137.025 109.509 125.785 109.509H125.734Z" fill="#0C79DD" stroke="black" stroke-width="2" stroke-miterlimit="10"/>
<path fill-rule="evenodd" clip-rule="evenodd" d="M63.9893 184.732V233.66C63.9893 236.814 66.6341 239.357 69.8892 239.357H82.5789C85.4525 239.357 87.9192 237.348 88.4024 234.601L91.5049 216.597C106.611 218.148 123.344 219.165 141.501 219.216C160.497 219.267 177.968 218.224 193.658 216.597C194.701 222.598 195.718 228.6 196.761 234.601C197.244 237.348 199.685 239.357 202.584 239.357H215.274C218.529 239.357 221.174 236.814 221.174 233.66V184.732C221.174 175.806 218.428 167.084 213.316 159.658L207.187 150.783C206.653 149.995 206.17 149.155 205.789 148.291H213.596C215.834 148.291 217.868 147.07 218.86 145.137L220.818 141.348C222.267 138.526 221.098 135.118 218.173 133.719C217.359 133.338 216.469 133.109 215.554 133.109H202.305L199.863 121.385C198.338 114.087 192.565 108.314 185.038 106.636C173.543 104.067 159.378 102.771 142.569 102.771C125.76 102.771 111.569 104.067 100.1 106.636C92.5984 108.314 86.8003 114.087 85.2745 121.385L82.8332 133.109H69.584C66.3289 133.109 63.6842 135.677 63.7096 138.805C63.7096 139.695 63.913 140.56 64.3199 141.348L66.2781 145.137C67.2698 147.07 69.3043 148.291 71.5421 148.291H79.3492C78.9678 149.155 78.4846 149.995 77.9506 150.783L71.8219 159.658C66.7104 167.084 63.9639 175.806 63.9639 184.732H63.9893ZM189.412 148.316C189.946 150.935 190.861 153.479 192.082 155.894H93.0562C94.3022 153.504 95.1923 150.961 95.7263 148.316L100.685 124.361C100.99 122.886 102.135 121.742 103.661 121.411C113.858 119.122 126.853 117.952 142.569 117.952C158.285 117.952 171.28 119.148 181.477 121.436C182.978 121.767 184.147 122.937 184.453 124.386L189.412 148.342V148.316ZM110.476 186.716C92.5475 190.505 78.6626 186.563 76.0687 175.908C75.6618 174.204 75.4584 172.068 75.7636 169.372C83.7487 169.194 95.3703 171.127 106.254 182.011C107.755 183.512 109.154 185.114 110.45 186.741L110.476 186.716ZM178.858 181.986C189.742 171.102 201.338 169.169 209.349 169.347C209.654 172.043 209.476 174.179 209.044 175.883C206.45 186.538 192.59 190.48 174.637 186.69C175.934 185.063 177.332 183.486 178.833 181.96L178.858 181.986Z" fill="#010101"/>
</g>
<path d="M30.4428 334L41.7228 306.32H48.0828L59.4028 334H53.1628L50.9228 328.2H38.8828L36.6828 334H30.4428ZM49.0428 323L44.9228 312.4L40.7628 323H49.0428Z" fill="#1D1D1B"/>
<path d="M61.3797 321.48V306.32H67.2997V321.48C67.2997 322.867 67.473 324.027 67.8197 324.96C68.193 325.893 68.673 326.64 69.2597 327.2C69.873 327.76 70.553 328.16 71.2997 328.4C72.073 328.64 72.873 328.76 73.6997 328.76H73.7397C74.5664 328.76 75.353 328.64 76.0997 328.4C76.873 328.16 77.553 327.76 78.1397 327.2C78.753 326.64 79.233 325.893 79.5797 324.96C79.953 324.027 80.1397 322.867 80.1397 321.48V306.32H86.0597V321.48C86.0597 323.747 85.7397 325.707 85.0997 327.36C84.4864 328.987 83.6197 330.333 82.4997 331.4C81.4064 332.467 80.113 333.253 78.6197 333.76C77.1264 334.24 75.4997 334.48 73.7397 334.48H73.6997C71.9397 334.48 70.313 334.24 68.8197 333.76C67.3264 333.253 66.0197 332.467 64.8997 331.4C63.8064 330.333 62.9397 328.987 62.2997 327.36C61.6864 325.707 61.3797 323.747 61.3797 321.48Z" fill="#1D1D1B"/>
<path d="M111.602 306.32V312H103.282V334H97.4022V312H89.0822V306.32H111.602Z" fill="#1D1D1B"/>
<path d="M112.96 320.16V320.12C112.96 318.04 113.28 316.12 113.92 314.36C114.586 312.6 115.533 311.093 116.76 309.84C117.986 308.587 119.48 307.613 121.24 306.92C123 306.2 124.986 305.84 127.2 305.84H127.24C129.453 305.84 131.44 306.2 133.2 306.92C134.96 307.613 136.453 308.587 137.68 309.84C138.906 311.093 139.84 312.6 140.48 314.36C141.146 316.12 141.48 318.04 141.48 320.12V320.16C141.48 322.267 141.146 324.2 140.48 325.96C139.84 327.693 138.906 329.2 137.68 330.48C136.453 331.733 134.96 332.72 133.2 333.44C131.44 334.133 129.453 334.48 127.24 334.48H127.2C124.986 334.48 123 334.133 121.24 333.44C119.48 332.72 117.986 331.733 116.76 330.48C115.533 329.2 114.586 327.693 113.92 325.96C113.28 324.2 112.96 322.267 112.96 320.16ZM118.88 320.16C118.88 321.44 119.066 322.627 119.44 323.72C119.84 324.787 120.4 325.72 121.12 326.52C121.84 327.293 122.706 327.893 123.72 328.32C124.76 328.747 125.92 328.96 127.2 328.96H127.24C128.52 328.96 129.666 328.747 130.68 328.32C131.72 327.893 132.6 327.293 133.32 326.52C134.04 325.72 134.586 324.787 134.96 323.72C135.36 322.627 135.56 321.44 135.56 320.16V320.12C135.56 318.84 135.36 317.667 134.96 316.6C134.586 315.533 134.04 314.613 133.32 313.84C132.6 313.04 131.72 312.427 130.68 312C129.666 311.573 128.52 311.36 127.24 311.36H127.2C125.92 311.36 124.76 311.573 123.72 312C122.706 312.427 121.84 313.04 121.12 313.84C120.4 314.613 119.84 315.533 119.44 316.6C119.066 317.667 118.88 318.84 118.88 320.12V320.16Z" fill="#1D1D1B"/>
<path d="M151.973 328.6H167.133V334H144.333V328.6L157.853 312.84L158.973 311.72H144.493V306.32H166.613V311.72L153.093 327.48L151.973 328.6Z" fill="#0C79DD"/>
<path d="M169.678 320.16V320.12C169.678 318.04 169.998 316.12 170.638 314.36C171.305 312.6 172.252 311.093 173.478 309.84C174.705 308.587 176.198 307.613 177.958 306.92C179.718 306.2 181.705 305.84 183.918 305.84H183.958C186.172 305.84 188.158 306.2 189.918 306.92C191.678 307.613 193.172 308.587 194.398 309.84C195.625 311.093 196.558 312.6 197.198 314.36C197.865 316.12 198.198 318.04 198.198 320.12V320.16C198.198 322.267 197.865 324.2 197.198 325.96C196.558 327.693 195.625 329.2 194.398 330.48C193.172 331.733 191.678 332.72 189.918 333.44C188.158 334.133 186.172 334.48 183.958 334.48H183.918C181.705 334.48 179.718 334.133 177.958 333.44C176.198 332.72 174.705 331.733 173.478 330.48C172.252 329.2 171.305 327.693 170.638 325.96C169.998 324.2 169.678 322.267 169.678 320.16ZM175.598 320.16C175.598 321.44 175.785 322.627 176.158 323.72C176.558 324.787 177.118 325.72 177.838 326.52C178.558 327.293 179.425 327.893 180.438 328.32C181.478 328.747 182.638 328.96 183.918 328.96H183.958C185.238 328.96 186.385 328.747 187.398 328.32C188.438 327.893 189.318 327.293 190.038 326.52C190.758 325.72 191.305 324.787 191.678 323.72C192.078 322.627 192.278 321.44 192.278 320.16V320.12C192.278 318.84 192.078 317.667 191.678 316.6C191.305 315.533 190.758 314.613 190.038 313.84C189.318 313.04 188.438 312.427 187.398 312C186.385 311.573 185.238 311.36 183.958 311.36H183.918C182.638 311.36 181.478 311.573 180.438 312C179.425 312.427 178.558 313.04 177.838 313.84C177.118 314.613 176.558 315.533 176.158 316.6C175.785 317.667 175.598 318.84 175.598 320.12V320.16Z" fill="#0C79DD"/>
<path d="M218.852 334L213.252 325.04H208.292V334H202.372V306.32H213.732C217.306 306.32 220.039 307.16 221.932 308.84C223.826 310.493 224.772 312.8 224.772 315.76V315.8C224.772 317.933 224.279 319.72 223.292 321.16C222.306 322.573 220.852 323.613 218.932 324.28L225.452 334H218.852ZM208.292 311.64V319.96H213.732C215.332 319.96 216.586 319.653 217.492 319.04C218.399 318.4 218.852 317.32 218.852 315.8V315.76C218.852 314.293 218.399 313.24 217.492 312.6C216.586 311.96 215.332 311.64 213.732 311.64H208.292Z" fill="#0C79DD"/>
<path d="M227.764 320.12C227.764 318.04 228.084 316.133 228.724 314.4C229.391 312.64 230.351 311.133 231.604 309.88C232.858 308.6 234.391 307.613 236.204 306.92C238.018 306.2 240.084 305.84 242.404 305.84H242.444C244.444 305.84 246.298 306.107 248.004 306.64C249.738 307.147 251.258 308 252.564 309.2L249.324 313.64C247.538 312.12 245.244 311.36 242.444 311.36H242.404C241.018 311.36 239.778 311.587 238.684 312.04C237.618 312.467 236.711 313.067 235.964 313.84C235.218 314.613 234.644 315.533 234.244 316.6C233.871 317.667 233.684 318.84 233.684 320.12V320.16C233.684 321.413 233.871 322.573 234.244 323.64C234.644 324.707 235.204 325.64 235.924 326.44C236.644 327.213 237.524 327.827 238.564 328.28C239.604 328.733 240.778 328.96 242.084 328.96H242.124C243.724 328.96 245.098 328.68 246.244 328.12C247.391 327.533 248.111 326.733 248.404 325.72V324.24H242.524V319.48H253.284V334H249.644L249.404 331.2C248.631 332.293 247.578 333.12 246.244 333.68C244.911 334.213 243.364 334.48 241.604 334.48H241.564C239.431 334.48 237.511 334.133 235.804 333.44C234.098 332.72 232.644 331.733 231.444 330.48C230.271 329.2 229.364 327.68 228.724 325.92C228.084 324.16 227.764 322.24 227.764 320.16V320.12Z" fill="#0C79DD"/>
<defs>
<filter id="filter0_d_42_19" x="0" y="0" width="291.163" height="291.163" filterUnits="userSpaceOnUse" color-interpolation-filters="sRGB">
<feFlood flood-opacity="0" result="BackgroundImageFix"/>
<feColorMatrix in="SourceAlpha" type="matrix" values="0 0 0 0 0 0 0 0 0 0 0 0 0 0 0 0 0 0 127 0" result="hardAlpha"/>
<feOffset dx="3" dy="3"/>
<feGaussianBlur stdDeviation="5"/>
<feColorMatrix type="matrix" values="0 0 0 0 0.113725 0 0 0 0 0.113725 0 0 0 0 0.105882 0 0 0 0.25 0"/>
<feBlend mode="normal" in2="BackgroundImageFix" result="effect1_dropShadow_42_19"/>
<feBlend mode="normal" in="SourceGraphic" in2="effect1_dropShadow_42_19" result="shape"/>
</filter>
<filter id="filter1_d_42_19" x="56.7094" y="37.832" width="177.73" height="214.525" filterUnits="userSpaceOnUse" color-interpolation-filters="sRGB">
<feFlood flood-opacity="0" result="BackgroundImageFix"/>
<feColorMatrix in="SourceAlpha" type="matrix" values="0 0 0 0 0 0 0 0 0 0 0 0 0 0 0 0 0 0 127 0" result="hardAlpha"/>
<feOffset dx="3" dy="3"/>
<feGaussianBlur stdDeviation="5"/>
<feColorMatrix type="matrix" values="0 0 0 0 0.113725 0 0 0 0 0.113725 0 0 0 0 0.105882 0 0 0 0.25 0"/>
<feBlend mode="normal" in2="BackgroundImageFix" result="effect1_dropShadow_42_19"/>
<feBlend mode="normal" in="SourceGraphic" in2="effect1_dropShadow_42_19" result="shape"/>
</filter>
</defs>
</svg>
