<svg width="292" height="292" viewBox="0 0 292 292" fill="none" xmlns="http://www.w3.org/2000/svg">
<g filter="url(#filter0_d_31_8)">
<path d="M241.467 7H43.6959C23.4293 7 7 23.4293 7 43.6959V241.467C7 261.734 23.4293 278.163 43.6959 278.163H241.467C261.734 278.163 278.163 261.734 278.163 241.467V43.6959C278.163 23.4293 261.734 7 241.467 7Z" fill="#B5E0EF"/>
</g>
<g filter="url(#filter1_d_31_8)">
<path d="M194.625 109.509C196.583 109.357 198.083 107.729 198.083 105.771V96.7943C198.083 94.8362 196.583 93.2087 194.625 93.0307L182.749 92.1152C181.986 92.0643 181.35 91.5811 181.045 90.8945L177.129 81.4599C176.849 80.7733 176.951 79.9595 177.459 79.4L185.216 70.3468C186.487 68.8465 186.411 66.634 185.012 65.2354L178.68 58.9032C177.281 57.5045 175.069 57.4282 173.569 58.6998L164.515 66.456C163.93 66.9392 163.142 67.0663 162.456 66.7866L153.021 62.8703C152.334 62.5906 151.851 61.9294 151.775 61.1665L150.859 49.2906C150.707 47.3324 149.079 45.832 147.121 45.832H138.144C136.186 45.832 134.559 47.3324 134.406 49.316L133.49 61.1919C133.44 61.9548 132.956 62.5906 132.27 62.8958L122.835 66.812C122.149 67.0918 121.335 66.9646 120.75 66.4814L111.697 58.7252C110.196 57.4537 107.984 57.53 106.585 58.9286L100.253 65.2608C98.8544 66.6594 98.7781 68.8719 100.05 70.3723L107.806 79.4255C108.289 80.0104 108.416 80.7987 108.136 81.4853L104.22 90.92C103.94 91.632 103.279 92.0897 102.516 92.1406L90.6404 93.0561C88.6823 93.2087 87.1819 94.8362 87.1819 96.8198V105.797C87.1819 107.755 88.6823 109.408 90.6404 109.56C125.327 109.56 160.014 109.56 194.676 109.56L194.625 109.509ZM125.734 109.509C125.607 109.23 125.404 108.848 125.226 108.365C123.98 105.314 123.852 102.618 123.852 101.27C123.852 96.2603 125.81 91.5557 129.345 88.0209C132.88 84.4861 137.61 82.5279 142.62 82.5279C147.63 82.5279 152.334 84.4861 155.895 88.0209C159.429 91.5557 161.387 96.2603 161.387 101.27C161.387 102.669 161.235 105.364 160.014 108.365C159.811 108.848 159.633 109.23 159.506 109.509C148.265 109.509 137.025 109.509 125.785 109.509H125.734Z" fill="#0C79DD" stroke="black" stroke-width="2" stroke-miterlimit="10"/>
<path fill-rule="evenodd" clip-rule="evenodd" d="M63.9893 184.732V233.66C63.9893 236.814 66.6341 239.357 69.8892 239.357H82.5789C85.4525 239.357 87.9192 237.348 88.4024 234.601L91.5049 216.597C106.611 218.148 123.344 219.165 141.501 219.216C160.497 219.267 177.968 218.224 193.658 216.597C194.701 222.598 195.718 228.6 196.761 234.601C197.244 237.348 199.685 239.357 202.584 239.357H215.274C218.529 239.357 221.174 236.814 221.174 233.66V184.732C221.174 175.806 218.428 167.084 213.316 159.658L207.187 150.783C206.653 149.995 206.17 149.155 205.789 148.291H213.596C215.834 148.291 217.868 147.07 218.86 145.137L220.818 141.348C222.267 138.526 221.098 135.118 218.173 133.719C217.359 133.338 216.469 133.109 215.554 133.109H202.305L199.863 121.385C198.338 114.087 192.565 108.314 185.038 106.636C173.543 104.067 159.378 102.771 142.569 102.771C125.76 102.771 111.569 104.067 100.1 106.636C92.5984 108.314 86.8003 114.087 85.2745 121.385L82.8332 133.109H69.584C66.3289 133.109 63.6842 135.677 63.7096 138.805C63.7096 139.695 63.913 140.56 64.3199 141.348L66.2781 145.137C67.2698 147.07 69.3043 148.291 71.5421 148.291H79.3492C78.9678 149.155 78.4846 149.995 77.9506 150.783L71.8219 159.658C66.7104 167.084 63.9639 175.806 63.9639 184.732H63.9893ZM189.412 148.316C189.946 150.935 190.861 153.479 192.082 155.894H93.0562C94.3022 153.504 95.1923 150.961 95.7263 148.316L100.685 124.361C100.99 122.886 102.135 121.742 103.661 121.411C113.858 119.122 126.853 117.952 142.569 117.952C158.285 117.952 171.28 119.148 181.477 121.436C182.978 121.767 184.147 122.937 184.453 124.386L189.412 148.342V148.316ZM110.476 186.716C92.5475 190.505 78.6626 186.563 76.0687 175.908C75.6618 174.204 75.4584 172.068 75.7636 169.372C83.7487 169.194 95.3703 171.127 106.254 182.011C107.755 183.512 109.154 185.114 110.45 186.741L110.476 186.716ZM178.858 181.986C189.742 171.102 201.338 169.169 209.349 169.347C209.654 172.043 209.476 174.179 209.044 175.883C206.45 186.538 192.59 190.48 174.637 186.69C175.934 185.063 177.332 183.486 178.833 181.96L178.858 181.986Z" fill="#010101"/>
</g>
<defs>
<filter id="filter0_d_31_8" x="0" y="0" width="291.163" height="291.163" filterUnits="userSpaceOnUse" color-interpolation-filters="sRGB">
<feFlood flood-opacity="0" result="BackgroundImageFix"/>
<feColorMatrix in="SourceAlpha" type="matrix" values="0 0 0 0 0 0 0 0 0 0 0 0 0 0 0 0 0 0 127 0" result="hardAlpha"/>
<feOffset dx="3" dy="3"/>
<feGaussianBlur stdDeviation="5"/>
<feColorMatrix type="matrix" values="0 0 0 0 0.113725 0 0 0 0 0.113725 0 0 0 0 0.105882 0 0 0 0.25 0"/>
<feBlend mode="normal" in2="BackgroundImageFix" result="effect1_dropShadow_31_8"/>
<feBlend mode="normal" in="SourceGraphic" in2="effect1_dropShadow_31_8" result="shape"/>
</filter>
<filter id="filter1_d_31_8" x="56.7094" y="37.832" width="177.73" height="214.525" filterUnits="userSpaceOnUse" color-interpolation-filters="sRGB">
<feFlood flood-opacity="0" result="BackgroundImageFix"/>
<feColorMatrix in="SourceAlpha" type="matrix" values="0 0 0 0 0 0 0 0 0 0 0 0 0 0 0 0 0 0 127 0" result="hardAlpha"/>
<feOffset dx="3" dy="3"/>
<feGaussianBlur stdDeviation="5"/>
<feColorMatrix type="matrix" values="0 0 0 0 0.113725 0 0 0 0 0.113725 0 0 0 0 0.105882 0 0 0 0.25 0"/>
<feBlend mode="normal" in2="BackgroundImageFix" result="effect1_dropShadow_31_8"/>
<feBlend mode="normal" in="SourceGraphic" in2="effect1_dropShadow_31_8" result="shape"/>
</filter>
</defs>
</svg>
