<svg width="800" height="750" viewBox="0 0 800 750" fill="none" xmlns="http://www.w3.org/2000/svg">
<path d="M750 100H625V50C625 22.3875 602.613 0 575 0C547.387 0 525 22.3875 525 50V100H275V50C275 22.3875 252.613 0 225 0C197.387 0 175 22.3875 175 50V100H50C22.3859 100 0 122.386 0 150V200H800V150C800 122.386 777.614 100 750 100Z" fill="white"/>
<path d="M0 700C0 727.614 22.3859 750 50 750H750C777.614 750 800 727.614 800 700V250H0V700ZM400 375H527.558C549.616 375 558.369 393.909 549.616 409.327L445.258 605.775C433.356 631.348 389.228 618.342 404.633 591.034L494.989 425H400C375 425 375 375 400 375ZM266.987 396.362L317.778 378.15C333.88 371.155 350 377.808 350 402.673V600C350 625 300 625 300 600V430.689L279.623 439.087C251.608 448.194 235.116 406.872 266.987 396.362Z" fill="white"/>
</svg>
