<svg width="524" height="524" viewBox="0 0 524 524" fill="none" xmlns="http://www.w3.org/2000/svg">
<path d="M14.6393 14.6393C24.0157 5.26576 36.7311 0 49.9893 0C63.2475 0 75.9629 5.26576 85.3393 14.6393L262.139 191.439L438.939 14.6393C448.369 5.53141 461 0.491698 474.109 0.605619C487.219 0.71954 499.76 5.97799 509.03 15.2484C518.301 24.5188 523.559 37.0594 523.673 50.1693C523.787 63.2791 518.747 75.9092 509.639 85.3393L332.839 262.139L509.639 438.939C518.747 448.369 523.787 461 523.673 474.109C523.559 487.219 518.301 499.76 509.03 509.03C499.76 518.301 487.219 523.559 474.109 523.673C461 523.787 448.369 518.747 438.939 509.639L262.139 332.839L85.3393 509.639C75.9092 518.747 63.2791 523.787 50.1693 523.673C37.0594 523.559 24.5188 518.301 15.2484 509.03C5.97799 499.76 0.71954 487.219 0.605619 474.109C0.491698 461 5.53141 448.369 14.6393 438.939L191.439 262.139L14.6393 85.3393C5.26576 75.9629 0 63.2475 0 49.9893C0 36.7311 5.26576 24.0157 14.6393 14.6393Z" fill="white"/>
</svg>
