<svg width="585" height="521" viewBox="0 0 585 521" fill="none" xmlns="http://www.w3.org/2000/svg">
<path d="M487.035 175L577.66 257.825C588.61 267.975 585.485 275.8 570.635 275.8H502.66V492.2C502.66 507.05 490.16 520.325 475.31 520.325H357.335V368.75C357.335 353.9 344.06 340.625 329.21 340.625H254.985C240.135 340.625 226.86 353.9 226.86 368.75V520.325H108.885C94.0346 520.325 80.7596 507.05 80.7596 492.2V275.8H13.5596C-1.29035 275.8 -4.41535 267.975 6.53465 257.825L271.385 17.2C282.335 7.05004 301.085 7.05004 312.785 17.2L372.935 71.1V28.125C372.935 13.275 386.21 3.05176e-05 401.06 3.05176e-05H459.66C474.51 3.05176e-05 487.01 13.275 487.01 28.125L487.035 175Z" fill="white"/>
</svg>
