<svg width="801" height="641" viewBox="0 0 801 641" fill="none" xmlns="http://www.w3.org/2000/svg">
<path d="M179.071 276.024L163.546 333.987C159.783 348.049 159.008 362.599 160.533 376.974L116.533 413.199C108.321 419.962 96.1456 412.662 98.2581 402.237L117.558 306.387C118.883 299.812 114.233 293.537 107.558 292.899L10.2331 283.462C-0.35444 282.437 -3.80444 268.674 5.05806 262.787L86.4956 208.662C92.0706 204.949 93.2206 197.224 88.9706 192.049L26.8331 116.537C20.0706 108.324 27.3706 96.1616 37.8081 98.2616L133.658 117.562C140.233 118.887 146.508 114.237 147.158 107.562L156.596 10.2366C157.621 -0.363431 171.383 -3.80093 177.283 5.06157L231.408 86.4866C235.121 92.0616 242.846 93.2116 248.021 88.9616L323.521 26.8241C331.733 20.0616 343.896 27.3616 341.796 37.7866L327.633 107.987C324.246 111.799 320.846 115.599 317.746 119.737L277.558 173.449L264.171 191.349C223.258 202.299 190.196 234.512 179.071 276.024ZM797.283 441.662L781.758 499.612C777.846 514.212 770.033 526.624 759.821 536.312C756.422 539.53 752.759 542.457 748.871 545.062L731.383 610.349C729.958 615.687 727.508 620.474 724.321 624.574C714.733 636.874 698.396 642.924 682.396 638.637L643.758 628.287C622.421 622.574 609.758 600.637 615.471 579.299L625.821 540.662L316.721 457.837L306.371 496.474C300.658 517.812 278.721 530.474 257.383 524.762L218.746 514.412C202.746 510.124 191.621 496.712 189.471 481.274C188.758 476.124 189.033 470.749 190.458 465.424L207.946 400.137C205.877 395.934 204.167 391.564 202.833 387.074C198.833 373.587 198.271 358.924 202.183 344.324L217.708 286.362C224.346 261.612 241.908 242.824 263.821 233.599C271.189 230.494 278.978 228.506 286.933 227.699L309.596 197.412L349.783 143.699C354.096 137.937 358.771 132.574 363.783 127.649C373.783 117.787 385.071 109.599 397.208 103.262C403.283 100.087 409.571 97.3741 416.021 95.1491C428.933 90.6741 442.508 88.1116 456.321 87.5991C470.133 87.0866 484.208 88.6241 498.108 92.3491L651.458 133.437C665.358 137.162 678.308 142.862 690.021 150.224C707.499 161.199 722.313 175.931 733.383 193.349C744.408 210.699 751.683 230.649 754.233 252.087L762.183 318.699L766.671 356.262C779.65 365.633 789.546 378.657 795.096 393.674C800.583 408.524 801.708 425.162 797.283 441.662ZM319.483 292.937C296.296 286.724 276.721 297.987 270.521 321.099C264.321 344.212 275.658 363.749 298.833 369.962C322.021 376.174 355.758 389.349 361.946 366.237C368.146 343.124 342.658 299.149 319.483 292.937ZM682.746 328.149L674.796 261.537C674.071 255.449 672.433 249.624 670.021 244.212C662.771 227.974 648.521 215.449 630.746 210.687L477.396 169.599C465.812 166.496 453.565 166.935 442.233 170.858C430.901 174.782 421.005 182.01 413.821 191.612L373.633 245.324L588.633 302.924L682.746 328.149ZM705.858 396.462C682.671 390.249 638.608 415.599 632.421 438.699C626.233 461.812 662.033 467.274 685.221 473.487C708.408 479.699 727.983 468.437 734.183 445.324C740.371 422.224 729.046 402.674 705.858 396.462Z" fill="white"/>
</svg>
