<svg width="270" height="271" viewBox="0 0 270 271" fill="none" xmlns="http://www.w3.org/2000/svg">
<path fill-rule="evenodd" clip-rule="evenodd" d="M265.147 233.932C256.813 259.258 224.161 271.889 200.833 269.783C168.973 266.903 134.304 250.004 107.988 231.392C69.3059 204.032 33.0716 161.71 11.9574 116.799C-2.9647 85.065 -6.31269 46.048 15.8815 17.1217C24.0896 6.42964 32.9636 0.719238 46.3017 0.0532324C64.8058 -0.846775 67.3979 9.73914 73.752 26.2273C78.486 38.5574 84.804 51.135 88.332 63.9151C94.9381 87.7652 71.8439 88.7621 68.9279 108.256C67.1099 120.55 82.014 137.037 88.7461 145.803C101.94 162.976 117.798 177.787 135.69 189.055C145.932 195.517 162.475 207.162 174.211 200.735C192.283 190.835 190.573 160.363 215.845 170.677C228.931 176.005 241.603 183.694 254.095 190.426C273.409 200.812 272.51 211.576 265.147 233.932C270.655 217.228 259.639 250.636 265.147 233.932Z" fill="white"/>
</svg>
