<svg width="60" height="60" viewBox="0 0 60 60" fill="none" xmlns="http://www.w3.org/2000/svg">
<path d="M58.125 34.451C59.1833 34.3687 60 33.4843 60 32.4241V27.5755C60 26.5134 59.1833 25.6309 58.125 25.5466L51.6998 25.0449C51.2916 25.0138 50.94 24.7575 50.7825 24.3784L48.6695 19.2789C48.512 18.9016 48.578 18.4696 48.8453 18.1601L53.0347 13.2602C53.7232 12.4526 53.6793 11.2515 52.9267 10.5008L49.4989 7.07304C48.7482 6.32235 47.5452 6.27465 46.7395 6.965L41.8396 11.1544C41.5301 11.42 41.0961 11.4877 40.7208 11.3321L35.6195 9.21721C35.2423 9.06159 34.9841 8.70452 34.9512 8.29987L34.4513 1.87651C34.3689 0.816675 33.4863 0 32.4244 0H27.5757C26.5137 0 25.6311 0.816675 25.5487 1.87686L25.0471 8.30023C25.0159 8.70675 24.7577 9.06194 24.3805 9.21756L19.2792 11.3324C18.902 11.4881 18.4699 11.4203 18.1586 11.1548L13.2605 6.96535C12.4548 6.275 11.2536 6.3227 10.5011 7.0734L7.07332 10.5011C6.32262 11.2518 6.2768 12.453 6.96527 13.2605L11.1547 18.1604C11.4184 18.4699 11.488 18.902 11.3305 19.2792L9.2175 24.3787C9.06363 24.7577 8.70668 25.0141 8.30191 25.0453L1.875 25.5467C0.81668 25.631 0 26.5135 0 27.5756V32.4223C0 33.4844 0.81668 34.3687 1.875 34.4512L8.30203 34.9511C8.70668 34.984 9.06375 35.2422 9.21762 35.6194L11.3306 40.7189C11.4881 41.0961 11.4185 41.5301 11.1548 41.8396L6.96539 46.7395C6.27691 47.5452 6.32273 48.7463 7.07344 49.4989L10.5012 52.9266C11.2537 53.6773 12.4549 53.7231 13.2606 53.0328L18.1587 48.8433C18.4699 48.5797 18.9021 48.5101 19.2793 48.6676L24.3806 50.7806C24.7579 50.9381 25.016 51.2914 25.0472 51.6998L25.5489 58.1231C25.6313 59.1814 26.5138 60 27.5759 60H32.4245C33.4866 60 34.3691 59.1816 34.4515 58.1231L34.9514 51.6998C34.9843 51.2915 35.2425 50.9381 35.6197 50.7806L40.721 48.6676C41.0964 48.5101 41.5322 48.5797 41.8398 48.8433L46.7398 53.0328C47.5454 53.7231 48.7485 53.6773 49.4992 52.9266L52.9269 49.4989C53.6795 48.7463 53.7234 47.5452 53.035 46.7395L48.8455 41.8396C48.5818 41.5301 48.5122 41.0961 48.6697 40.7189L50.7827 35.6194C50.9402 35.2422 51.2918 34.984 51.7001 34.9511L58.125 34.451ZM30 40.1384C27.2919 40.1384 24.7448 39.0837 22.8295 37.1702C20.9142 35.2532 19.8595 32.708 19.8595 29.9981C19.8595 27.29 20.9142 24.7429 22.8295 22.8295C24.7448 20.9125 27.2918 19.8595 30 19.8595C32.71 19.8595 35.2552 20.9123 37.1705 22.8295C39.0858 24.7429 40.1405 27.29 40.1405 29.9981C40.1405 32.708 39.0858 35.2532 37.1705 37.1702C35.2552 39.0837 32.71 40.1384 30 40.1384Z" fill="white"/>
</svg>
