<svg width="103" height="103" viewBox="0 0 103 103" fill="none" xmlns="http://www.w3.org/2000/svg">
<path d="M75.5318 0C73.7102 2.16953e-05 71.9631 0.723257 70.675 2.0106C69.3869 3.29795 68.6633 5.04395 68.6633 6.86452V10.3001H6.86854C5.04693 10.3001 3.29994 11.0233 2.01184 12.3106C0.723751 13.5979 7.23164e-05 15.3438 2.86544e-10 17.1643C-8.23848e-06 18.0658 0.177645 18.9584 0.522818 19.7912C0.86799 20.6241 1.37392 21.3808 2.01172 22.0182C2.64953 22.6557 3.40671 23.1613 4.24005 23.5063C5.07338 23.8513 5.96655 24.0288 6.86854 24.0288H68.6633V27.4685C68.6633 29.289 69.3869 31.035 70.675 32.3224C71.9631 33.6097 73.7102 34.333 75.5318 34.333C77.3535 34.333 79.1006 33.6097 80.3887 32.3224C81.6768 31.035 82.4004 29.289 82.4004 27.4685V24.0288H96.1291C97.0311 24.0289 97.9243 23.8513 98.7577 23.5064C99.5911 23.1614 100.348 22.6558 100.986 22.0184C101.624 21.3809 102.13 20.6242 102.475 19.7913C102.82 18.9585 102.998 18.0658 102.998 17.1643C102.998 16.2629 102.82 15.3702 102.475 14.5374C102.13 13.7046 101.624 12.9479 100.986 12.3105C100.348 11.6731 99.591 11.1675 98.7576 10.8226C97.9243 10.4776 97.0311 10.3001 96.1291 10.3001H82.4004V6.86452C82.4004 5.04395 81.6768 3.29795 80.3887 2.0106C79.1006 0.723257 77.3535 2.16953e-05 75.5318 0ZM25.7495 34.3327C24.8475 34.3326 23.9543 34.5102 23.1209 34.8551C22.2875 35.2001 21.5303 35.7057 20.8925 36.3431C20.2546 36.9806 19.7487 37.7373 19.4035 38.5702C19.0583 39.403 18.8806 40.2957 18.8806 41.1972V44.6325H6.87056C5.96856 44.6325 5.07539 44.81 4.24206 45.155C3.40872 45.5 2.65154 46.0056 2.01374 46.6431C1.37593 47.2805 0.870001 48.0372 0.524829 48.8701C0.179657 49.7029 0.00200332 50.5955 0.00201165 51.497C0.00200332 52.3984 0.179657 53.2911 0.524829 54.1239C0.870001 54.9567 1.37593 55.7135 2.01374 56.3509C2.65154 56.9883 3.40872 57.494 4.24206 57.8389C5.07539 58.1839 5.96856 58.3615 6.87056 58.3615H18.8806V61.8011C18.8806 62.7026 19.0583 63.5953 19.4035 64.4281C19.7487 65.261 20.2546 66.0177 20.8925 66.6552C21.5303 67.2926 22.2875 67.7982 23.1209 68.1432C23.9543 68.4882 24.8475 68.6657 25.7495 68.6657C27.5712 68.6656 29.3182 67.9424 30.6063 66.6551C31.8944 65.3677 32.618 63.6217 32.618 61.8011V58.3615H96.1315C97.0335 58.3615 97.9266 58.1839 98.76 57.8389C99.5933 57.494 100.35 56.9883 100.988 56.3509C101.626 55.7135 102.132 54.9567 102.477 54.1239C102.822 53.2911 103 52.3984 103 51.497C103 50.5955 102.822 49.7029 102.477 48.8701C102.132 48.0372 101.626 47.2805 100.988 46.6431C100.35 46.0056 99.5933 45.5 98.76 45.155C97.9266 44.81 97.0335 44.6325 96.1315 44.6325H32.618V41.1972C32.618 39.3766 31.8944 37.6306 30.6063 36.3433C29.3182 35.0559 27.5712 34.3327 25.7495 34.3327ZM48.0657 68.6657C46.2441 68.6657 44.4971 69.3889 43.209 70.6761C41.9209 71.9634 41.1973 73.7093 41.1972 75.5298V78.9651H6.87056C5.96856 78.9651 5.07539 79.1427 4.24206 79.4877C3.40872 79.8326 2.65154 80.3383 2.01374 80.9757C1.37593 81.6131 0.870001 82.3699 0.524829 83.2027C0.179657 84.0356 0.00200332 84.9282 0.00201165 85.8296C0.00208409 87.6501 0.725762 89.3961 2.01385 90.6833C3.30195 91.9706 5.04895 92.6938 6.87056 92.6938H41.1972V96.1338C41.1973 97.9543 41.9209 99.7002 43.209 100.987C44.4971 102.275 46.2441 102.998 48.0657 102.998C49.8873 102.998 51.6343 102.275 52.9224 100.987C54.2105 99.7002 54.9342 97.9543 54.9343 96.1338V92.6938H96.1315C97.9531 92.6938 99.7001 91.9706 100.988 90.6833C102.276 89.3961 103 87.6501 103 85.8296C103 84.9282 102.822 84.0356 102.477 83.2027C102.132 82.3699 101.626 81.6131 100.988 80.9757C100.35 80.3383 99.5933 79.8326 98.76 79.4877C97.9266 79.1427 97.0335 78.9651 96.1315 78.9651H54.9343V75.5298C54.9342 73.7093 54.2105 71.9634 52.9224 70.6761C51.6343 69.3889 49.8873 68.6657 48.0657 68.6657Z" fill="white"/>
</svg>
